<svg id="Layer_1" enable-background="new 0 0 512 512" height="512" viewBox="0 0 512 512" width="512" xmlns="http://www.w3.org/2000/svg"><path d="m486 410.605v-276h16v-44h-108v44h16v52h-20v-32h-36.184l-97.816-65.21-97.816 65.211h-36.184v32h-20v-52h16v-44h-108v44h16v276h-26v12h512v-12h-26zm-464-288v-20h84v20zm68 288h-52v-244h52zm0-256h-52v-20h52zm32 256h-20v-52h20zm0-64h-20v-148h20zm76-204.122 20-13.334v89.456h-20zm-32 21.333 20-13.333v68.122h-20zm-32 2.789h20v52h-20zm20 244h-20v-36h20zm0-48h-20v-100h20zm32 48h-20v-36h20zm0-48h-20v-100h20zm32 48h-20v-36h20zm0-48h-20v-100h20zm32 48h-20v-36h20zm0-48h-20v-100h20zm0-112h-116v-20h116zm0-32h-20v-97.455l20-13.333zm76-68.122 20 13.333v54.789h-20zm-32-21.333 20 13.334v76.122h-20zm-32-21.334 20 13.333v97.456h-20zm20 302.789h-20v-36h20zm0-48h-20v-100h20zm32 48h-20v-36h20zm0-48h-20v-100h20zm32 48h-20v-36h20zm0-48h-20v-100h20zm32 48h-20v-36h20zm0-48h-20v-100h20zm0-112h-116v-20h116zm0-32h-20v-52h20zm32 192h-20v-52h20zm0-64h-20v-148h20zm-4-224v-20h84v20zm68 288h-52v-244h52zm0-256h-52v-20h52z"/></svg>