<?xml version="1.0" encoding="utf-8"?>
<!-- Generator: Adobe Illustrator 22.1.0, SVG Export Plug-In . SVG Version: 6.00 Build 0)  -->
<svg version="1.1" id="Layer_1" xmlns="http://www.w3.org/2000/svg" xmlns:xlink="http://www.w3.org/1999/xlink" x="0px" y="0px"
	 viewBox="0 0 512 512" style="enable-background:new 0 0 512 512;" xml:space="preserve">
<g>
	<path d="M508.1,160.9c-10-30.6-41-50.1-72.9-48.5c7.9-11.9,12-25.6,12-39.9c0-40-32.5-72.5-72.5-72.5c-18.3,0-35.8,6.9-49.3,19.3
		l-201,165c-0.2,0.2-0.5,0.4-0.7,0.7c-20.6,17.9-33.6,44.2-33.6,73.6c0,8.9,1.2,17.5,3.5,25.7c0,0-56.8,53.4-69.3,66.2
		C10.7,364.3,0.2,390,0.2,414.5c0,53.8,43.7,97.5,97.5,97.5c40.5,0,75.3-24.8,90-60c14.7,35.2,49.5,60,90,60
		c38.7,0,72.2-22.7,87.9-55.4l115-197.5c4.9-8.4-8.1-15.9-13-7.5l-92.5,159c-2.1-51.9-45-93.5-97.4-93.5c-4.3,0-8.5,0.3-12.6,0.8
		c0,0,132.2-157.7,155.9-186.8c27.8-13,63.9,7,72.8,34.6c3.8,11.7,4,24.4,0.7,36.1c-1.1,3.9-2.6,7.7-4.5,11.3
		c-4.5,8.6,8.9,15.5,13.3,6.9C512.7,201.8,514.4,180.3,508.1,160.9L508.1,160.9z M335.2,30.7c11.6-9.5,24.1-15.7,39.5-15.7
		c31.7,0,57.5,25.8,57.5,57.5c0,12.5-3.9,24.3-11.3,34.3c0,0-127.3,153.1-136.5,164.1c0.5-4.1,0.8-8.2,0.8-12.4
		c0-53.8-43.7-97.5-97.5-97.5c-4.1,0-8.2,0.3-12.1,0.8L335.2,30.7z M187.7,176c45.5,0,82.5,37,82.5,82.5c0,44.7-37.8,82.5-82.5,82.5
		c-45.5,0-82.5-37-82.5-82.5C105.2,213,142.2,176,187.7,176L187.7,176z M200.4,355.2c-5.1,6.7-9.4,14-12.7,21.8
		c-3.3-7.9-7.6-15.2-12.7-21.8c4.2,0.5,8.4,0.8,12.7,0.8S196.2,355.7,200.4,355.2z M99.3,299.6c3,6.5,6.8,12.6,11.1,18.3
		c-4.2-0.5-8.4-0.8-12.7-0.8c-6.4,0-12.6,0.6-18.6,1.8L99.3,299.6z M97.7,497c-45.5,0-82.5-37-82.5-82.5c0-21.1,8-40.3,21-54.9
		c16.1-17,37.7-27.6,61.5-27.6c45.5,0,82.5,37,82.5,82.5S143.2,497,97.7,497z M360.2,414.5c0,45.5-37,82.5-82.5,82.5
		c-45.5,0-82.5-37-82.5-82.5s37-82.5,82.5-82.5C323.1,332,360.2,369,360.2,414.5z M493.4,205.5l-25.8,45.9l13,7.5l22.8-39.2
		L493.4,205.5z"/>
	<path d="M97.7,342c-40,0-72.5,32.5-72.5,72.5S57.7,487,97.7,487s72.5-32.5,72.5-72.5S137.6,342,97.7,342z M97.7,472
		c-31.7,0-57.5-25.8-57.5-57.5S66,357,97.7,357s57.5,25.8,57.5,57.5S129.4,472,97.7,472z"/>
	<path d="M277.7,487c40,0,72.5-32.5,72.5-72.5S317.6,342,277.7,342s-72.5,32.5-72.5,72.5S237.7,487,277.7,487z M277.7,357
		c31.7,0,57.5,25.8,57.5,57.5S309.4,472,277.7,472s-57.5-25.8-57.5-57.5S246,357,277.7,357z"/>
</g>
<g>
	<path d="M187.7,331.3c40,0,72.5-32.5,72.5-72.5s-32.5-72.5-72.5-72.5s-72.5,32.5-72.5,72.5S147.7,331.3,187.7,331.3z M187.7,201.3
		c31.7,0,57.5,25.8,57.5,57.5s-25.8,57.5-57.5,57.5s-57.5-25.8-57.5-57.5S156,201.3,187.7,201.3z"/>
</g>
</svg>
